# xmcd
#
# Track frame offsets: 
#        150
#        16746
#        33403
#        49475
#        65745
#        82222
#        99978
#        117356
#        135031
#        155300
#        169711
#        182452
#        198882
#        216150
#        237585
#        259015
#
# Disc length: 3669 seconds
#
# Revision: 0
# Processed by: cddbd v1.5.1PL0 Copyright (c) Steve Scherf et al.
# Submitted via: ExactAudioCopy v0.95a3
#
DISCID=d40e5310
DTITLE=Various Artist - Танцевальный Рай. Хит Сезона
DYEAR=2000
DGENRE=Pop
TTITLE0=Гости Из Будущего - Ты Где-То
TTITLE1=Оскар - Бег По Острию Ножа
TTITLE2=Полина Ростова - Поздно-Поздно
TTITLE3=Горячие Головы - Типа Я Без Тебя
TTITLE4=Небо - Обещала
TTITLE5=Ультра - Ультрафиолет
TTITLE6=Dj Smash - Между Небом И Землёй
TTITLE7=Демо - Я Делаю Вдох
TTITLE8=Дмитрий Маликов - Апрель
TTITLE9=Блестящие - За Осенью Придёт Зима
TTITLE10=Hi-Fi - Он
TTITLE11=Мюзикола - Я Тебя Никогда Не Забуду
TTITLE12=Секретный Объект - Посмотри В Глаза
TTITLE13=Play - Сон
TTITLE14=Унесённые Ветром - Медведи
TTITLE15=ТТ - Девчонки Едут На Юг
EXTD=
EXTT0=
EXTT1=
EXTT2=
EXTT3=
EXTT4=
EXTT5=
EXTT6=
EXTT7=
EXTT8=
EXTT9=
EXTT10=
EXTT11=
EXTT12=
EXTT13=
EXTT14=
EXTT15=
PLAYORDER=
